<?xml version="1.0" encoding="UTF-8" standalone="no"?>
<svg
   xmlns:dc="http://purl.org/dc/elements/1.1/"
   xmlns:cc="http://creativecommons.org/ns#"
   xmlns:rdf="http://www.w3.org/1999/02/22-rdf-syntax-ns#"
   xmlns:svg="http://www.w3.org/2000/svg"
   xmlns="http://www.w3.org/2000/svg"
   xmlns:sodipodi="http://sodipodi.sourceforge.net/DTD/sodipodi-0.dtd"
   xmlns:inkscape="http://www.inkscape.org/namespaces/inkscape"
   version="1.1"
   x="0px"
   y="0px"
   viewBox="0 0 157.70413 160.76103"
   enable-background="new 0 0 100 100"
   xml:space="preserve"
   id="svg10"
   sodipodi:docname="annflux.svg"
   width="157.70413"
   height="160.76103"
   inkscape:version="0.92.5 (2060ec1f9f, 2020-04-08)"
   inkscape:export-filename="/home/lhogeweg/Documents/annflux/src/annflux/ui/basic/static/annflux.png"
   inkscape:export-xdpi="96"
   inkscape:export-ydpi="96"><metadata
   id="metadata16"><rdf:RDF><cc:Work
       rdf:about=""><dc:format>image/svg+xml</dc:format><dc:type
         rdf:resource="http://purl.org/dc/dcmitype/StillImage" /><dc:title /></cc:Work></rdf:RDF></metadata><defs
   id="defs14"><marker
     inkscape:stockid="Arrow1Send"
     orient="auto"
     refY="0.0"
     refX="0.0"
     id="marker1374"
     style="overflow:visible;"
     inkscape:isstock="true"><path
       id="path1372"
       d="M 0.0,0.0 L 5.0,-5.0 L -12.5,0.0 L 5.0,5.0 L 0.0,0.0 z "
       style="fill-rule:evenodd;stroke:#ccff00;stroke-width:1pt;stroke-opacity:1;fill:#ccff00;fill-opacity:1"
       transform="scale(0.2) rotate(180) translate(6,0)" /></marker><marker
     inkscape:stockid="Arrow2Lend"
     orient="auto"
     refY="0.0"
     refX="0.0"
     id="Arrow2Lend"
     style="overflow:visible;"
     inkscape:isstock="true"><path
       id="path875"
       style="fill-rule:evenodd;stroke-width:0.625;stroke-linejoin:round;stroke:#ccff00;stroke-opacity:1;fill:#ccff00;fill-opacity:1"
       d="M 8.7185878,4.0337352 L -2.2072895,0.016013256 L 8.7185884,-4.0017078 C 6.9730900,-1.6296469 6.9831476,1.6157441 8.7185878,4.0337352 z "
       transform="scale(1.1) rotate(180) translate(1,0)" /></marker><marker
     inkscape:stockid="Arrow1Send"
     orient="auto"
     refY="0.0"
     refX="0.0"
     id="Arrow1Send"
     style="overflow:visible;"
     inkscape:isstock="true"><path
       id="path869"
       d="M 0.0,0.0 L 5.0,-5.0 L -12.5,0.0 L 5.0,5.0 L 0.0,0.0 z "
       style="fill-rule:evenodd;stroke:#ccff00;stroke-width:1pt;stroke-opacity:1;fill:#ccff00;fill-opacity:1"
       transform="scale(0.2) rotate(180) translate(6,0)" /></marker><marker
     inkscape:stockid="Tail"
     orient="auto"
     refY="0.0"
     refX="0.0"
     id="Tail"
     style="overflow:visible"
     inkscape:isstock="true"><g
       id="g902"
       transform="scale(-1.2)"
       style="stroke:#ccff00;stroke-opacity:1;fill:#ccff00;fill-opacity:1"><path
         id="path890"
         d="M -3.8048674,-3.9585227 L 0.54352094,0"
         style="fill:#ccff00;fill-rule:evenodd;stroke:#ccff00;stroke-width:0.8;stroke-linecap:round;stroke-opacity:1;fill-opacity:1" /><path
         id="path892"
         d="M -1.2866832,-3.9585227 L 3.0617053,0"
         style="fill:#ccff00;fill-rule:evenodd;stroke:#ccff00;stroke-width:0.8;stroke-linecap:round;stroke-opacity:1;fill-opacity:1" /><path
         id="path894"
         d="M 1.3053582,-3.9585227 L 5.6537466,0"
         style="fill:#ccff00;fill-rule:evenodd;stroke:#ccff00;stroke-width:0.8;stroke-linecap:round;stroke-opacity:1;fill-opacity:1" /><path
         id="path896"
         d="M -3.8048674,4.1775838 L 0.54352094,0.21974226"
         style="fill:#ccff00;fill-rule:evenodd;stroke:#ccff00;stroke-width:0.8;stroke-linecap:round;stroke-opacity:1;fill-opacity:1" /><path
         id="path898"
         d="M -1.2866832,4.1775838 L 3.0617053,0.21974226"
         style="fill:#ccff00;fill-rule:evenodd;stroke:#ccff00;stroke-width:0.8;stroke-linecap:round;stroke-opacity:1;fill-opacity:1" /><path
         id="path900"
         d="M 1.3053582,4.1775838 L 5.6537466,0.21974226"
         style="fill:#ccff00;fill-rule:evenodd;stroke:#ccff00;stroke-width:0.8;stroke-linecap:round;stroke-opacity:1;fill-opacity:1" /></g></marker><marker
     inkscape:stockid="Arrow1Mend"
     orient="auto"
     refY="0.0"
     refX="0.0"
     id="Arrow1Mend"
     style="overflow:visible;"
     inkscape:isstock="true"><path
       id="path863"
       d="M 0.0,0.0 L 5.0,-5.0 L -12.5,0.0 L 5.0,5.0 L 0.0,0.0 z "
       style="fill-rule:evenodd;stroke:#ccff00;stroke-width:1pt;stroke-opacity:1;fill:#ccff00;fill-opacity:1"
       transform="scale(0.4) rotate(180) translate(10,0)" /></marker><marker
     inkscape:stockid="Arrow1Lend"
     orient="auto"
     refY="0.0"
     refX="0.0"
     id="Arrow1Lend"
     style="overflow:visible;"
     inkscape:isstock="true"><path
       id="path857"
       d="M 0.0,0.0 L 5.0,-5.0 L -12.5,0.0 L 5.0,5.0 L 0.0,0.0 z "
       style="fill-rule:evenodd;stroke:#ccff00;stroke-width:1pt;stroke-opacity:1;fill:#ccff00;fill-opacity:1"
       transform="scale(0.8) rotate(180) translate(12.5,0)" /></marker><marker
     inkscape:stockid="Arrow1Send"
     orient="auto"
     refY="0"
     refX="0"
     id="marker1374-3"
     style="overflow:visible"
     inkscape:isstock="true"><path
       inkscape:connector-curvature="0"
       id="path1372-6"
       d="M 0,0 5,-5 -12.5,0 5,5 Z"
       style="fill:#d35f5f;fill-opacity:1;fill-rule:evenodd;stroke:#d35f5f;stroke-width:1.00000003pt;stroke-opacity:1"
       transform="matrix(-0.2,0,0,-0.2,-1.2,0)" /></marker><marker
     inkscape:stockid="Arrow1Send"
     orient="auto"
     refY="0"
     refX="0"
     id="marker1374-3-5"
     style="overflow:visible"
     inkscape:isstock="true"><path
       inkscape:connector-curvature="0"
       id="path1372-6-3"
       d="M 0,0 5,-5 -12.5,0 5,5 Z"
       style="fill:#00ffcc;fill-opacity:1;fill-rule:evenodd;stroke:#00ffcc;stroke-width:1.00000003pt;stroke-opacity:1"
       transform="matrix(-0.2,0,0,-0.2,-1.2,0)" /></marker></defs><sodipodi:namedview
   pagecolor="#ffffff"
   bordercolor="#666666"
   borderopacity="1"
   objecttolerance="10"
   gridtolerance="10"
   guidetolerance="10"
   inkscape:pageopacity="0"
   inkscape:pageshadow="2"
   inkscape:window-width="1848"
   inkscape:window-height="1016"
   id="namedview12"
   showgrid="false"
   fit-margin-top="10"
   fit-margin-left="10"
   fit-margin-right="10"
   fit-margin-bottom="10"
   inkscape:zoom="1.888"
   inkscape:cx="-120.54835"
   inkscape:cy="96.736904"
   inkscape:window-x="72"
   inkscape:window-y="27"
   inkscape:window-maximized="1"
   inkscape:current-layer="svg10" /><rect
   style="fill:#000000;fill-opacity:1;stroke:#00ffcc;stroke-width:10;stroke-miterlimit:4;stroke-dasharray:none;stroke-dashoffset:0;stroke-opacity:1"
   id="rect60"
   width="463.98306"
   height="356.99152"
   x="-163.66525"
   y="-85.531342" /><path
   d="m 86.557301,150.76103 c -4.426971,0 -9.037479,-1.75719 -13.704067,-5.2257 -0.108763,-0.0799 -0.209028,-0.16824 -0.302496,-0.26171 L 16.414024,87.947319 C 9.201714,82.211799 6.6067107,73.779311 8.703786,62.880975 L 11.246108,12.422 c 0.06968,-1.373126 1.159,-2.4437566 2.588207,-2.421664 l 48.921006,0.846308 c 10.942521,-1.4241087 19.25775,1.668824 24.651687,9.107155 l 53.694662,59.802348 c 0.0833,0.09177 0.15635,0.186936 0.22602,0.288901 6.43228,9.647568 5.76441,18.785313 -1.93903,26.422482 l -40.72304,39.52834 c -0.0527,0.0527 -0.10706,0.10027 -0.16314,0.14615 -3.742111,3.06405 -7.762923,4.61901 -11.945179,4.61901 z M 76.04983,141.55871 c 3.714917,2.72586 7.246297,4.10408 10.509171,4.10408 2.989267,0 5.811993,-1.11312 8.636417,-3.40053 L 135.8182,102.82908 c 5.93605,-5.890166 6.37959,-12.19329 1.36802,-19.803262 L 83.52045,23.259158 c -0.06288,-0.06798 -0.118959,-0.141052 -0.176739,-0.217525 -4.318209,-6.032917 -10.91703,-8.350917 -20.104057,-7.117143 -0.129156,0.01699 -0.265109,0.01869 -0.385767,0.02379 L 16.210094,15.141061 13.786731,63.319424 c -0.0068,0.122357 -0.02379,0.246414 -0.04588,0.365373 -1.799679,9.144543 0.149548,15.806242 5.954744,20.35897 0.08667,0.06628 0.169941,0.142751 0.246414,0.222623 z"
   id="path2"
   inkscape:connector-curvature="0"
   style="fill:#cccccc;stroke-width:1.69941318" /><path
   d="m 34.862853,50.701281 c -3.726813,0 -6.957398,-1.4479 -9.601684,-4.301215 -2.562715,-2.487941 -3.906951,-5.67604 -3.906951,-9.379061 0,-4.042904 1.344236,-7.400944 4.000418,-9.984052 2.588207,-2.661281 5.805196,-4.036106 9.509916,-4.036106 3.70812,0 7.03727,1.344236 9.890585,3.99532 2.698668,2.623894 4.046302,5.983634 4.046302,10.024838 0,3.703021 -1.347634,6.89112 -4.002117,9.472529 -2.860113,2.792136 -6.206257,4.207747 -9.936469,4.207747 z m 0,-22.602195 c -2.306104,0 -4.238336,0.829314 -5.905461,2.542322 -1.702812,1.658627 -2.506634,3.728513 -2.506634,6.379597 0,2.306104 0.803822,4.211146 2.455652,5.818791 1.755494,1.891447 3.670732,2.763246 5.954743,2.763246 2.389375,0 4.474555,-0.902389 6.376199,-2.759847 1.660326,-1.611044 2.462449,-3.514387 2.462449,-5.82219 0,-2.651084 -0.803822,-4.72097 -2.459051,-6.330314 -1.864256,-1.731702 -3.96643,-2.591605 -6.377897,-2.591605 z"
   id="path4"
   inkscape:connector-curvature="0"
   style="fill:#cccccc;stroke-width:1.69941318" />
<path
   style="fill:#ccff00;fill-opacity:1;stroke:#ccff00;stroke-width:10;stroke-miterlimit:4;stroke-dasharray:none;stroke-dashoffset:0;stroke-opacity:1;marker-end:url(#marker1374)"
   d="M 3.0663568,56.947473 141.30788,15.104252"
   id="path47"
   inkscape:connector-curvature="0" /><path
   style="fill:#d35f5f;fill-opacity:1;stroke:#d35f5f;stroke-width:10;stroke-miterlimit:4;stroke-dasharray:none;stroke-dashoffset:0;stroke-opacity:1;marker-end:url(#marker1374-3)"
   d="M 3.066359,104.00968 141.30788,62.166453"
   id="path47-7"
   inkscape:connector-curvature="0" /><path
   style="fill:#00ffcc;fill-opacity:1;stroke:#00ffcc;stroke-width:10;stroke-miterlimit:4;stroke-dasharray:none;stroke-dashoffset:0;stroke-opacity:1;marker-end:url(#marker1374-3-5)"
   d="M 3.066361,151.07188 141.30788,109.22865"
   id="path47-7-5"
   inkscape:connector-curvature="0" /></svg>