<?xml version="1.0" encoding="UTF-8" standalone="no"?>
<svg
   xmlns:dc="http://purl.org/dc/elements/1.1/"
   xmlns:cc="http://creativecommons.org/ns#"
   xmlns:rdf="http://www.w3.org/1999/02/22-rdf-syntax-ns#"
   xmlns:svg="http://www.w3.org/2000/svg"
   xmlns="http://www.w3.org/2000/svg"
   xmlns:sodipodi="http://sodipodi.sourceforge.net/DTD/sodipodi-0.dtd"
   xmlns:inkscape="http://www.inkscape.org/namespaces/inkscape"
   version="1.1"
   x="0px"
   y="0px"
   viewBox="0 0 277.34375 232.05723"
   enable-background="new 0 0 100 100"
   xml:space="preserve"
   id="svg10"
   sodipodi:docname="annflux_logo.svg"
   width="277.34375"
   height="232.05724"
   inkscape:version="0.92.5 (2060ec1f9f, 2020-04-08)"
   inkscape:export-filename="/home/lhogeweg/Documents/annflux/src/annflux/ui/basic/static/annflux_logo.png"
   inkscape:export-xdpi="96"
   inkscape:export-ydpi="96"><metadata
   id="metadata16"><rdf:RDF><cc:Work
       rdf:about=""><dc:format>image/svg+xml</dc:format><dc:type
         rdf:resource="http://purl.org/dc/dcmitype/StillImage" /><dc:title></dc:title></cc:Work></rdf:RDF></metadata><defs
   id="defs14"><marker
     inkscape:stockid="Arrow1Send"
     orient="auto"
     refY="0"
     refX="0"
     id="marker1374"
     style="overflow:visible"
     inkscape:isstock="true"><path
       id="path1372"
       d="M 0,0 5,-5 -12.5,0 5,5 Z"
       style="fill:#ccff00;fill-opacity:1;fill-rule:evenodd;stroke:#ccff00;stroke-width:1.00000003pt;stroke-opacity:1"
       transform="matrix(-0.2,0,0,-0.2,-1.2,0)"
       inkscape:connector-curvature="0" /></marker><marker
     inkscape:stockid="Arrow2Lend"
     orient="auto"
     refY="0"
     refX="0"
     id="Arrow2Lend"
     style="overflow:visible"
     inkscape:isstock="true"><path
       id="path875"
       style="fill:#ccff00;fill-opacity:1;fill-rule:evenodd;stroke:#ccff00;stroke-width:0.625;stroke-linejoin:round;stroke-opacity:1"
       d="M 8.7185878,4.0337352 -2.2072895,0.01601326 8.7185884,-4.0017078 c -1.7454984,2.3720609 -1.7354408,5.6174519 -6e-7,8.035443 z"
       transform="matrix(-1.1,0,0,-1.1,-1.1,0)"
       inkscape:connector-curvature="0" /></marker><marker
     inkscape:stockid="Arrow1Send"
     orient="auto"
     refY="0"
     refX="0"
     id="Arrow1Send"
     style="overflow:visible"
     inkscape:isstock="true"><path
       id="path869"
       d="M 0,0 5,-5 -12.5,0 5,5 Z"
       style="fill:#ccff00;fill-opacity:1;fill-rule:evenodd;stroke:#ccff00;stroke-width:1.00000003pt;stroke-opacity:1"
       transform="matrix(-0.2,0,0,-0.2,-1.2,0)"
       inkscape:connector-curvature="0" /></marker><marker
     inkscape:stockid="Tail"
     orient="auto"
     refY="0"
     refX="0"
     id="Tail"
     style="overflow:visible"
     inkscape:isstock="true"><g
       id="g902"
       transform="scale(-1.2)"
       style="fill:#ccff00;fill-opacity:1;stroke:#ccff00;stroke-opacity:1"><path
         id="path890"
         d="M -3.8048674,-3.9585227 0.54352094,0"
         style="fill:#ccff00;fill-opacity:1;fill-rule:evenodd;stroke:#ccff00;stroke-width:0.80000001;stroke-linecap:round;stroke-opacity:1"
         inkscape:connector-curvature="0" /><path
         id="path892"
         d="M -1.2866832,-3.9585227 3.0617053,0"
         style="fill:#ccff00;fill-opacity:1;fill-rule:evenodd;stroke:#ccff00;stroke-width:0.80000001;stroke-linecap:round;stroke-opacity:1"
         inkscape:connector-curvature="0" /><path
         id="path894"
         d="M 1.3053582,-3.9585227 5.6537466,0"
         style="fill:#ccff00;fill-opacity:1;fill-rule:evenodd;stroke:#ccff00;stroke-width:0.80000001;stroke-linecap:round;stroke-opacity:1"
         inkscape:connector-curvature="0" /><path
         id="path896"
         d="M -3.8048674,4.1775838 0.54352094,0.21974226"
         style="fill:#ccff00;fill-opacity:1;fill-rule:evenodd;stroke:#ccff00;stroke-width:0.80000001;stroke-linecap:round;stroke-opacity:1"
         inkscape:connector-curvature="0" /><path
         id="path898"
         d="M -1.2866832,4.1775838 3.0617053,0.21974226"
         style="fill:#ccff00;fill-opacity:1;fill-rule:evenodd;stroke:#ccff00;stroke-width:0.80000001;stroke-linecap:round;stroke-opacity:1"
         inkscape:connector-curvature="0" /><path
         id="path900"
         d="M 1.3053582,4.1775838 5.6537466,0.21974226"
         style="fill:#ccff00;fill-opacity:1;fill-rule:evenodd;stroke:#ccff00;stroke-width:0.80000001;stroke-linecap:round;stroke-opacity:1"
         inkscape:connector-curvature="0" /></g></marker><marker
     inkscape:stockid="Arrow1Mend"
     orient="auto"
     refY="0"
     refX="0"
     id="Arrow1Mend"
     style="overflow:visible"
     inkscape:isstock="true"><path
       id="path863"
       d="M 0,0 5,-5 -12.5,0 5,5 Z"
       style="fill:#ccff00;fill-opacity:1;fill-rule:evenodd;stroke:#ccff00;stroke-width:1.00000003pt;stroke-opacity:1"
       transform="matrix(-0.4,0,0,-0.4,-4,0)"
       inkscape:connector-curvature="0" /></marker><marker
     inkscape:stockid="Arrow1Lend"
     orient="auto"
     refY="0"
     refX="0"
     id="Arrow1Lend"
     style="overflow:visible"
     inkscape:isstock="true"><path
       id="path857"
       d="M 0,0 5,-5 -12.5,0 5,5 Z"
       style="fill:#ccff00;fill-opacity:1;fill-rule:evenodd;stroke:#ccff00;stroke-width:1.00000003pt;stroke-opacity:1"
       transform="matrix(-0.8,0,0,-0.8,-10,0)"
       inkscape:connector-curvature="0" /></marker><marker
     inkscape:stockid="Arrow1Send"
     orient="auto"
     refY="0"
     refX="0"
     id="marker1374-3"
     style="overflow:visible"
     inkscape:isstock="true"><path
       inkscape:connector-curvature="0"
       id="path1372-6"
       d="M 0,0 5,-5 -12.5,0 5,5 Z"
       style="fill:#d35f5f;fill-opacity:1;fill-rule:evenodd;stroke:#d35f5f;stroke-width:1.00000003pt;stroke-opacity:1"
       transform="matrix(-0.2,0,0,-0.2,-1.2,0)" /></marker><marker
     inkscape:stockid="Arrow1Send"
     orient="auto"
     refY="0"
     refX="0"
     id="marker1374-3-5"
     style="overflow:visible"
     inkscape:isstock="true"><path
       inkscape:connector-curvature="0"
       id="path1372-6-3"
       d="M 0,0 5,-5 -12.5,0 5,5 Z"
       style="fill:#00ffcc;fill-opacity:1;fill-rule:evenodd;stroke:#00ffcc;stroke-width:1.00000003pt;stroke-opacity:1"
       transform="matrix(-0.2,0,0,-0.2,-1.2,0)" /></marker></defs><sodipodi:namedview
   pagecolor="#ffffff"
   bordercolor="#666666"
   borderopacity="1"
   objecttolerance="10"
   gridtolerance="10"
   guidetolerance="10"
   inkscape:pageopacity="0"
   inkscape:pageshadow="2"
   inkscape:window-width="1848"
   inkscape:window-height="1016"
   id="namedview12"
   showgrid="false"
   fit-margin-top="10"
   fit-margin-left="10"
   fit-margin-right="10"
   fit-margin-bottom="10"
   inkscape:zoom="1.888"
   inkscape:cx="66.102724"
   inkscape:cy="167.96519"
   inkscape:window-x="72"
   inkscape:window-y="27"
   inkscape:window-maximized="1"
   inkscape:current-layer="svg10" /><path
   d="m 148.37711,150.82895 c -4.42697,0 -9.03748,-1.75719 -13.70407,-5.2257 -0.10876,-0.0799 -0.20903,-0.16824 -0.3025,-0.26171 L 78.23383,88.015236 C 71.02152,82.279716 68.426517,73.847228 70.523592,62.948892 l 2.542322,-50.458975 c 0.06968,-1.373126 1.159,-2.443757 2.588207,-2.421664 l 48.921009,0.846308 c 10.94252,-1.4241092 19.25775,1.668824 24.65168,9.107155 l 53.69467,59.802348 c 0.0833,0.09177 0.15635,0.186936 0.22602,0.288901 6.43228,9.647568 5.76441,18.785313 -1.93903,26.422485 l -40.72304,39.52834 c -0.0527,0.0527 -0.10706,0.10027 -0.16314,0.14615 -3.74211,3.06405 -7.76293,4.61901 -11.94518,4.61901 z m -10.50747,-9.20232 c 3.71491,2.72586 7.24629,4.10408 10.50917,4.10408 2.98926,0 5.81199,-1.11312 8.63641,-3.40053 L 197.63801,102.897 c 5.93605,-5.890169 6.37959,-12.193293 1.36802,-19.803265 l -53.66577,-59.76666 c -0.0629,-0.06798 -0.11896,-0.141052 -0.17674,-0.217525 -4.31821,-6.032917 -10.91703,-8.350917 -20.10406,-7.117143 -0.12916,0.01699 -0.26511,0.01869 -0.38577,0.02379 L 78.0299,15.208978 75.606537,63.387341 c -0.0068,0.122357 -0.02379,0.246414 -0.04588,0.365373 -1.799679,9.144543 0.149548,15.806242 5.954744,20.35897 0.08667,0.06628 0.169941,0.142751 0.246414,0.222623 z"
   id="path2"
   inkscape:connector-curvature="0"
   style="fill:#cccccc;stroke-width:1.69941318" /><path
   d="m 138.4569,50.769198 c -3.72682,0 -6.9574,-1.4479 -9.60169,-4.301215 -2.56271,-2.487941 -3.90695,-5.67604 -3.90695,-9.379061 0,-4.042904 1.34424,-7.400944 4.00042,-9.984052 2.58821,-2.661281 5.8052,-4.036106 9.50992,-4.036106 3.70812,0 7.03727,1.344236 9.89058,3.99532 2.69867,2.623894 4.04631,5.983634 4.04631,10.024838 0,3.703021 -1.34764,6.89112 -4.00212,9.472529 -2.86012,2.792136 -6.20626,4.207747 -9.93647,4.207747 z m 0,-22.602195 c -2.30611,0 -4.23834,0.829314 -5.90546,2.542322 -1.70282,1.658627 -2.50664,3.728513 -2.50664,6.379597 0,2.306104 0.80382,4.211146 2.45565,5.818791 1.7555,1.891447 3.67074,2.763246 5.95475,2.763246 2.38937,0 4.47455,-0.902389 6.3762,-2.759847 1.66032,-1.611044 2.46245,-3.514387 2.46245,-5.82219 0,-2.651084 -0.80383,-4.72097 -2.45906,-6.330314 -1.86425,-1.731702 -3.96643,-2.591605 -6.37789,-2.591605 z"
   id="path4"
   inkscape:connector-curvature="0"
   style="fill:#cccccc;stroke-width:1.69941318" />
<path
   style="fill:#ccff00;fill-opacity:1;stroke:#ccff00;stroke-width:10;stroke-miterlimit:4;stroke-dasharray:none;stroke-dashoffset:0;stroke-opacity:1;marker-end:url(#marker1374)"
   d="M 61.731472,57.01539 199.973,15.172169"
   id="path47"
   inkscape:connector-curvature="0" /><path
   style="fill:#d35f5f;fill-opacity:1;stroke:#d35f5f;stroke-width:10;stroke-miterlimit:4;stroke-dasharray:none;stroke-dashoffset:0;stroke-opacity:1;marker-end:url(#marker1374-3)"
   d="M 61.731472,104.0776 199.973,62.23437"
   id="path47-7"
   inkscape:connector-curvature="0" /><path
   style="fill:#00ffcc;fill-opacity:1;stroke:#00ffcc;stroke-width:10;stroke-miterlimit:4;stroke-dasharray:none;stroke-dashoffset:0;stroke-opacity:1;marker-end:url(#marker1374-3-5)"
   d="M 61.731473,151.1398 199.97299,109.29657"
   id="path47-7-5"
   inkscape:connector-curvature="0" /><text
   xml:space="preserve"
   style="font-size:26.66666603px;line-height:1.25;text-align:start;text-anchor:start;fill:#000000;fill-opacity:1;stroke:#00ffcc;stroke-width:2;stroke-miterlimit:4;stroke-dasharray:none;stroke-dashoffset:0;stroke-opacity:1"
   x="10.5"
   y="220.15099"
   id="text83"><tspan
     sodipodi:role="line"
     id="tspan81"
     x="10.5"
     y="220.15099"
     style="font-size:64px">AnnFlux</tspan></text>
</svg>